Coordinates
version=1
nRows=9
nColumns=36
inDegrees=yes

Units are S.I. units (second, meters, Newtons, ...)
If the header above contains a line with 'inDegrees', this indicates whether rotational values are in degrees (yes) or radians (no).

endheader
time	pelvis_tilt	pelvis_list	pelvis_rotation	pelvis_tx	pelvis_ty	pelvis_tz	hip_flexion_r	hip_adduction_r	hip_rotation_r	knee_angle_r	knee_angle_r_beta	ankle_angle_r	subtalar_angle_r	mtp_angle_r	hip_flexion_l	hip_adduction_l	hip_rotation_l	knee_angle_l	knee_angle_l_beta	ankle_angle_l	subtalar_angle_l	mtp_angle_l	lumbar_extension	lumbar_bending	lumbar_rotation	arm_flex_r	arm_add_r	arm_rot_r	elbow_flex_r	pro_sup_r	arm_flex_l	arm_add_l	arm_rot_l	elbow_flex_l	pro_sup_l
     29.73333330	      3.38830955	     -2.53941497	     -2.68922174	      0.50086703	      1.03042192	      0.80086892	     -2.20120825	      3.33445698	      1.03425966	     11.58203060	      0.20214457	     13.85967472	     -0.63680660	     -7.49999987	     21.24942664	     -7.15306467	     -1.70975489	     44.69297356	      0.78003954	      7.42366508	     -7.63056673	     -7.49999987	    -20.86273805	      3.15377345	      8.59814993	      8.94438069	    -19.76950744	      7.09920327	     38.87390591	     83.49106011	      8.25718536	    -10.98490568	     18.66594271	     20.64900204	     91.83576485
     29.75000000	      3.44505230	     -2.57376011	     -2.48913232	      0.49926178	      1.02994467	      0.79931174	     -3.33370949	      3.30271030	      0.69422687	     10.92751681	      0.19072115	     13.93447184	     -0.08031331	     -7.49999987	     22.00675036	     -7.24632868	     -1.74600860	     40.09355486	      0.69976454	      7.39358874	     -7.19288483	     -7.49999987	    -21.61985389	      3.08846113	      8.67907724	      9.23420944	    -20.09898630	      6.43127357	     40.54434727	     83.57903328	      8.23630699	    -10.77369277	     17.51460222	     21.56691915	     92.25318060
     29.76666670	      3.11156861	     -2.68577579	     -2.24454168	      0.49700643	      1.02880529	      0.79801458	     -4.01375267	      3.36369680	      0.51060565	     10.28524372	      0.17951137	     13.97297246	      0.07614963	     -7.49999987	     23.12393528	     -7.39215364	     -1.60471581	     35.46792140	      0.61903201	      7.23477389	     -6.38916460	     -7.49999987	    -21.69313017	      3.19480884	      8.66810970	      9.83592131	    -20.35579536	      6.28707638	     40.85695476	     83.82361533	      8.53903807	    -10.42497185	     17.41799760	     21.30602200	     92.68697853
     29.78333330	      3.17304382	     -2.71761211	     -2.01951928	      0.49225186	      1.02837358	      0.79714726	     -5.17978878	      3.27839924	      0.09203307	      9.51678426	      0.16609922	     14.65705173	      1.14487566	     -7.49999987	     23.68550433	     -7.40101296	     -1.43246184	     30.67662725	      0.53540815	      6.93187206	     -5.50189121	     -7.49999987	    -22.44702914	      3.21517160	      8.47222842	     10.37282181	    -20.63217002	      5.99901631	     42.08096320	     83.31561230	      8.56278403	    -10.33219261	     16.69332325	     22.29712764	     92.11376461
     29.80000000	      2.85053482	     -2.83223586	     -1.96354581	      0.48734739	      1.02660509	      0.79650750	     -6.01883185	      3.32251572	      0.09538318	      8.61210942	      0.15030966	     15.39348735	      1.75719292	     -7.49999987	     24.61742886	     -7.57846871	     -1.44103121	     25.97107138	      0.45328071	      6.95180647	     -4.01952033	     -7.49999987	    -22.61016702	      3.27788203	      8.60926187	     10.72479659	    -21.07059578	      5.99451138	     43.13534146	     83.16636493	      9.02202121	     -9.89351285	     15.70339828	     22.19333674	     92.34581205
     29.81666670	      2.61370728	     -2.93209024	     -1.95532605	      0.48620787	      1.02397430	      0.79517064	     -7.04972889	      3.34678765	      0.12116822	      7.71895806	      0.13472123	     16.43989325	      2.57312280	     -7.49999987	     25.31060252	     -7.63474849	     -1.34227932	     21.35949279	      0.37279348	      6.84703754	     -2.73754941	     -7.49999987	    -22.72423910	      3.30465213	      8.63736232	     11.18541076	    -21.36743313	      5.96642883	     43.73245352	     83.30635331	      9.24960526	     -9.72355111	     15.27297271	     22.74914703	     92.70427823
     29.83333330	      2.45043566	     -3.04415255	     -2.05228321	      0.48964842	      1.02074864	      0.79304618	     -8.25935309	      3.35795459	     -0.00781826	      6.93598924	      0.12105585	     17.71277571	      3.89662913	     -7.49999987	     25.86630222	     -7.63454150	     -1.43831833	     17.33554382	      0.30256232	      7.34465522	     -0.62255688	     -7.49999987	    -22.69234849	      3.35273127	      8.79634422	     11.45372209	    -21.82980480	      6.16300988	     44.24627806	     84.14887750	      9.62414501	     -9.17725607	     14.19451798	     22.25567075	     94.41337639
     29.85000000	      2.35583885	     -3.09535243	     -2.31758648	      0.49444087	      1.01777888	      0.79078004	     -9.58411048	      3.29897951	      0.33820830	      6.45833019	      0.11271913	     18.96114530	      4.54255868	     -7.49999987	     26.22461714	     -7.46112511	     -1.55059255	     14.07182791	      0.24559973	      7.79585181	      1.23129545	     -7.49999987	    -22.59647351	      3.27024776	      8.93854098	     11.61379908	    -22.02709740	      6.16418566	     44.57364676	     84.03612960	      9.55853129	     -8.92289351	     13.67437315	     22.50430711	     94.69171092
     29.86666670	      2.21484567	     -3.06065568	     -2.68902822	      0.49830973	      1.01413596	      0.78816683	    -10.88238107	      3.09370356	      0.51544177	      6.23079886	      0.10874796	     20.15415572	      5.54529195	     -7.49999987	     26.57920808	     -7.07105628	     -1.64428102	     11.96914354	      0.20890096	      8.28829020	      2.79869031	     -7.49999987	    -22.18295686	      3.07525685	      9.09048352	     11.74386752	    -22.30520542	      6.78724144	     44.42830710	     83.43496298	      9.47275200	     -8.61526323	     13.26361640	     22.16270252	     94.62530530
